<?xml version="1.0" encoding="utf-8"?>
<!-- Generator: Adobe Illustrator 19.1.0, SVG Export Plug-In . SVG Version: 6.00 Build 0)  -->
<svg version="1.1" id="Ebene_1" xmlns="http://www.w3.org/2000/svg" xmlns:xlink="http://www.w3.org/1999/xlink" x="0px" y="0px"
	 viewBox="0 0 680 680" enable-background="new 0 0 680 680" xml:space="preserve">
<linearGradient id="SVGID_1_" gradientUnits="userSpaceOnUse" x1="-7.633389e-09" y1="7.632480e-09" x2="680" y2="680">
	<stop  offset="0" style="stop-color:#56BFCC"/>
	<stop  offset="1" style="stop-color:#00A77C"/>
</linearGradient>
<rect fill="url(#SVGID_1_)" width="680" height="680"/>
<polygon opacity="0.15" fill="#010202" points="61.943,473.894 265.599,677.55 680,680 680.158,214.91 587.247,122 530.813,122 
	455,177.021 375,190 346,269 338,361 272,417 191,423.505 159.781,385.414 102,367 75,399 61.943,444 "/>
<path fill="#FFFFFF" d="M530.808,98.834c-29.964,0-56.008,16.962-69.13,41.773c-20.009-3.303-51.055-3.799-81.31,14.39
	c-42.55,25.578-68.418,78.237-76.889,156.525c-4.737,43.793-18.871,73.014-41.993,86.848c-20.365,12.185-45.241,11.368-63.521,8.17
	c-7.779-34.976-39.001-61.22-76.283-61.22c-43.111,0-78.187,35.076-78.187,78.192s35.076,78.187,78.187,78.187
	c29.508,0,55.236-16.435,68.543-40.625c9.082,1.489,19.267,2.536,30.094,2.536c21.964,0,46.434-4.265,69.06-17.673
	c39.011-23.132,62.193-66.353,68.914-128.486c6.381-58.985,23.668-98.718,49.983-114.897c17.558-10.797,36.239-9.378,46.59-7.298
	c8.25,34.329,39.126,59.947,75.942,59.947c43.116,0,78.192-35.076,78.192-78.187C608.995,133.905,573.919,98.834,530.808,98.834z
	 M121.687,461.596c-21.002,0-38.089-17.087-38.089-38.089c0-21.002,17.087-38.094,38.089-38.094s38.094,17.087,38.094,38.094
	c0,3.829-0.581,7.523-1.639,11.007l-2.762,6.701C148.989,453.32,136.293,461.596,121.687,461.596z M530.808,215.11
	c-20.997,0-38.084-17.087-38.084-38.089s17.082-38.089,38.084-38.089c21.002,0,38.094,17.087,38.094,38.089
	S551.809,215.11,530.808,215.11z"/>
<path opacity="0.25" fill="#010202" d="M123.778,461.596c-21.002,0-38.089-17.087-38.089-38.089
	c0-21.002,17.087-38.094,38.089-38.094s38.094,17.087,38.094,38.094c0,3.829-0.581,7.523-1.639,11.007l-2.762,6.701
	C151.08,453.32,138.384,461.596,123.778,461.596z"/>
<path opacity="0.25" fill="#010202" d="M530.81,215.112c-21.002,0-38.089-17.087-38.089-38.089s17.087-38.094,38.089-38.094
	c21.002,0,38.094,17.087,38.094,38.094c0,3.829-0.581,7.523-1.639,11.007l-2.762,6.701
	C558.112,206.837,545.416,215.112,530.81,215.112z"/>
</svg>
