<?xml version="1.0" encoding="utf-8"?>
<!-- Generator: Adobe Illustrator 19.1.0, SVG Export Plug-In . SVG Version: 6.00 Build 0)  -->
<svg version="1.1" id="Ebene_1" xmlns="http://www.w3.org/2000/svg" xmlns:xlink="http://www.w3.org/1999/xlink" x="0px" y="0px"
	 viewBox="25 -37 100 125" enable-background="new 25 -37 100 125" xml:space="preserve">
<g>
	<path fill="none" d="M65.324,23.195c-0.287,0.953-0.443,1.963-0.443,3.009c0,5.802,4.721,10.522,10.523,10.522
		s10.521-4.721,10.521-10.522s-4.719-10.523-10.521-10.523c-2.494,0-4.787,0.874-6.594,2.33"/>
	<path fill="none" d="M70.67,20.412c1.32-1.115,3.025-1.788,4.887-1.788c4.186,0,7.58,3.393,7.58,7.579s-3.395,7.58-7.58,7.58
		c-4.184,0-7.578-3.395-7.578-7.58c0-0.746,0.109-1.467,0.311-2.148"/>
	<path d="M75.557,33.783c4.186,0,7.58-3.395,7.58-7.58s-3.395-7.579-7.58-7.579c-1.861,0-3.566,0.673-4.887,1.788L75,26
		l-6.709-1.945c-0.201,0.682-0.312,1.402-0.312,2.148C67.979,30.389,71.373,33.783,75.557,33.783z"/>
	<path d="M102.775,25.264C95.867,15.88,85.604,10.5,74.615,10.5c-10.498,0-20.467,4.993-27.348,13.699l-0.99,1.254l0.947,1.285
		C54.133,36.121,64.398,41.5,75.383,41.5c10.5,0,20.469-4.992,27.35-13.699l0.99-1.252L102.775,25.264z M75.404,36.726
		c-5.803,0-10.523-4.721-10.523-10.522c0-1.046,0.156-2.055,0.443-3.008l-2.414-0.7c-0.35,1.177-0.541,2.419-0.541,3.708
		c0,3.929,1.756,7.447,4.514,9.84c-5.848-1.783-11.154-5.39-15.293-10.5c4.24-4.875,9.619-8.265,15.467-9.845l0.219,0.329
		l1.537,1.984c1.805-1.456,4.098-2.33,6.594-2.33c5.801,0,10.521,4.719,10.521,10.523C85.926,32.006,81.207,36.726,75.404,36.726z
		 M83.975,35.998c2.73-2.391,4.465-5.891,4.465-9.794c0-4.046-1.855-7.667-4.758-10.06c5.625,1.839,10.725,5.368,14.73,10.314
		C94.42,31.044,89.424,34.31,83.975,35.998z"/>
	<g>
		<path d="M75,74c-26.467,0-48-21.532-48-48c0-26.467,21.533-48,48-48c26.468,0,48,21.533,48,48C123,52.468,101.468,74,75,74z
			 M75-19C50.187-19,30,1.187,30,26s20.187,45,45,45s45-20.187,45-45S99.813-19,75-19z"/>
	</g>
	<g>
		<path d="M75.599,65.751l-0.001-0.5c0.664-0.001,1.332-0.019,1.987-0.053l0.025,0.5C76.947,65.732,76.271,65.75,75.599,65.751z
			 M73.586,65.702c-0.658-0.032-1.333-0.082-2.007-0.148l0.05-0.498c0.665,0.066,1.331,0.115,1.981,0.146L73.586,65.702z
			 M79.617,65.546l-0.051-0.498c0.659-0.066,1.322-0.15,1.972-0.25l0.076,0.494C80.956,65.393,80.284,65.479,79.617,65.546z
			 M69.582,65.304c-0.665-0.1-1.332-0.218-1.982-0.351l0.1-0.49c0.643,0.131,1.301,0.248,1.957,0.347L69.582,65.304z M83.595,64.937
			l-0.102-0.49c0.654-0.134,1.306-0.285,1.938-0.449l0.125,0.484C84.916,64.647,84.256,64.801,83.595,64.937z M65.638,64.503
			c-0.644-0.165-1.296-0.351-1.937-0.551l0.149-0.477c0.632,0.197,1.276,0.38,1.912,0.543L65.638,64.503z M87.49,63.928l-0.15-0.477
			c0.638-0.201,1.271-0.418,1.881-0.645l0.174,0.469C88.776,63.505,88.136,63.725,87.49,63.928z M61.792,63.302
			c-0.64-0.236-1.271-0.488-1.874-0.748l0.197-0.459c0.595,0.256,1.218,0.504,1.85,0.738L61.792,63.302z M91.259,62.528
			l-0.197-0.459c0.611-0.264,1.218-0.544,1.802-0.831l0.221,0.449C92.493,61.978,91.879,62.261,91.259,62.528z M58.085,61.714
			c-0.592-0.29-1.193-0.604-1.787-0.933l0.242-0.438c0.587,0.325,1.18,0.635,1.764,0.921L58.085,61.714z M94.863,60.755
			l-0.242-0.438c0.568-0.316,1.144-0.655,1.709-1.009l0.266,0.424C96.022,60.09,95.44,60.435,94.863,60.755z M54.562,59.759
			c-0.575-0.358-1.142-0.731-1.683-1.109l0.286-0.41c0.534,0.373,1.093,0.741,1.661,1.096L54.562,59.759z M98.271,58.624
			l-0.285-0.41c0.533-0.371,1.072-0.768,1.601-1.177l0.307,0.395C99.358,57.847,98.812,58.248,98.271,58.624z M51.256,57.459
			c-0.523-0.405-1.049-0.833-1.562-1.273l0.325-0.379c0.507,0.434,1.025,0.856,1.542,1.256L51.256,57.459z M101.451,56.159
			l-0.326-0.379c0.504-0.434,1-0.883,1.476-1.334l0.344,0.363C102.464,55.266,101.961,55.72,101.451,56.159z M48.201,54.839
			c-0.49-0.465-0.969-0.943-1.425-1.423l0.362-0.344c0.45,0.473,0.923,0.945,1.407,1.403L48.201,54.839z M104.366,53.388
			l-0.361-0.346c0.449-0.472,0.898-0.968,1.334-1.475l0.379,0.326C105.276,52.407,104.822,52.909,104.366,53.388z M45.424,51.924
			c-0.441-0.513-0.87-1.036-1.274-1.558l0.396-0.307c0.399,0.515,0.822,1.032,1.258,1.538L45.424,51.924z M106.991,50.335
			l-0.395-0.307c0.402-0.519,0.799-1.058,1.179-1.603l0.41,0.285C107.801,49.264,107.399,49.81,106.991,50.335z M42.956,48.749
			c-0.38-0.545-0.754-1.109-1.11-1.678l0.424-0.266c0.352,0.562,0.721,1.119,1.097,1.656L42.956,48.749z M109.295,47.031
			l-0.424-0.266c0.347-0.555,0.687-1.132,1.011-1.715l0.438,0.244C109.99,45.884,109.646,46.469,109.295,47.031z M40.822,45.341
			c-0.323-0.579-0.637-1.178-0.935-1.78l0.448-0.221c0.293,0.595,0.604,1.186,0.923,1.757L40.822,45.341z M111.253,43.509
			l-0.449-0.221c0.291-0.589,0.571-1.197,0.834-1.809l0.459,0.197C111.831,42.296,111.547,42.912,111.253,43.509z M39.045,41.739
			c-0.265-0.613-0.517-1.24-0.749-1.864l0.469-0.174c0.229,0.615,0.478,1.234,0.739,1.839L39.045,41.739z M112.845,39.805
			l-0.469-0.174c0.228-0.613,0.444-1.248,0.645-1.886l0.477,0.148C113.295,38.54,113.075,39.184,112.845,39.805z M37.642,37.972
			c-0.203-0.642-0.39-1.293-0.557-1.936l0.484-0.125c0.164,0.634,0.349,1.276,0.549,1.91L37.642,37.972z M114.05,35.958
			l-0.484-0.125c0.166-0.645,0.316-1.296,0.447-1.937l0.49,0.1C114.37,34.645,114.218,35.305,114.05,35.958z M36.629,34.076
			c-0.135-0.651-0.255-1.318-0.357-1.981l0.494-0.076c0.101,0.655,0.219,1.313,0.352,1.956L36.629,34.076z M114.854,32.017
			l-0.494-0.077c0.098-0.638,0.182-1.301,0.249-1.972l0.498,0.051C115.038,30.698,114.953,31.37,114.854,32.017z M36.017,30.099
			c-0.068-0.664-0.12-1.339-0.154-2.007l0.499-0.025c0.034,0.659,0.085,1.325,0.152,1.981L36.017,30.099z M115.258,28.013
			l-0.5-0.025c0.033-0.655,0.05-1.324,0.05-1.987v-0.159h0.5V26C115.308,26.671,115.291,27.349,115.258,28.013z M36.308,26.08h-0.5
			V26c0-0.638,0.016-1.288,0.046-1.931l0.499,0.023c-0.03,0.636-0.045,1.278-0.045,1.908C36.308,26,36.308,26.08,36.308,26.08z
			 M114.75,23.855c-0.035-0.662-0.088-1.329-0.157-1.981l0.498-0.053c0.069,0.661,0.123,1.336,0.159,2.006L114.75,23.855z
			 M36.498,22.11L36,22.061c0.066-0.667,0.149-1.34,0.248-1.998l0.494,0.074C36.645,20.787,36.562,21.451,36.498,22.11z
			 M114.338,19.903c-0.104-0.661-0.224-1.319-0.356-1.955l0.49-0.103c0.134,0.645,0.256,1.311,0.36,1.98L114.338,19.903z
			 M37.087,18.181l-0.49-0.1c0.132-0.653,0.284-1.313,0.449-1.962l0.484,0.124C37.367,16.883,37.218,17.535,37.087,18.181z
			 M113.526,16.014c-0.168-0.641-0.354-1.283-0.553-1.909l0.477-0.151c0.201,0.634,0.39,1.285,0.561,1.934L113.526,16.014z
			 M38.071,14.331l-0.478-0.148c0.199-0.638,0.417-1.281,0.648-1.911l0.47,0.173C38.483,13.066,38.268,13.701,38.071,14.331z
			 M112.323,12.226c-0.233-0.623-0.483-1.242-0.743-1.838l0.459-0.199c0.263,0.604,0.516,1.231,0.753,1.862L112.323,12.226z
			 M39.446,10.594l-0.46-0.196c0.26-0.609,0.542-1.227,0.839-1.833l0.449,0.22C39.982,9.383,39.703,9.992,39.446,10.594z
			 M110.744,8.589c-0.297-0.596-0.608-1.187-0.927-1.756l0.436-0.244c0.323,0.576,0.639,1.174,0.938,1.777L110.744,8.589z
			 M41.195,7.018l-0.438-0.242c0.322-0.583,0.666-1.167,1.021-1.737l0.425,0.264C41.852,5.866,41.513,6.443,41.195,7.018z
			 M108.805,5.127c-0.352-0.559-0.722-1.115-1.1-1.654l0.408-0.287c0.384,0.545,0.759,1.109,1.115,1.674L108.805,5.127z
			 M43.295,3.64l-0.411-0.285c0.381-0.548,0.781-1.095,1.19-1.625l0.396,0.306C44.066,2.559,43.671,3.098,43.295,3.64z
			 M106.523,1.878c-0.416-0.53-0.841-1.047-1.264-1.536l0.379-0.327c0.428,0.495,0.857,1.018,1.278,1.554L106.523,1.878z
			 M45.725,0.492l-0.38-0.325c0.433-0.506,0.886-1.009,1.347-1.496l0.363,0.344C46.6-0.504,46.152-0.007,45.725,0.492z
			 M103.923-1.128c-0.462-0.481-0.936-0.953-1.41-1.401l0.344-0.363c0.479,0.454,0.96,0.931,1.428,1.419L103.923-1.128z
			 M48.458-2.394l-0.346-0.361c0.483-0.461,0.984-0.917,1.49-1.353l0.326,0.379C49.43-3.298,48.935-2.849,48.458-2.394z
			 M101.035-3.859c-0.498-0.425-1.017-0.846-1.544-1.252l0.305-0.396c0.534,0.412,1.061,0.838,1.563,1.269L101.035-3.859z
			 M51.466-4.988l-0.308-0.395c0.523-0.408,1.068-0.81,1.618-1.195l0.287,0.409C52.52-5.788,51.982-5.391,51.466-4.988z
			 M97.886-6.285c-0.542-0.375-1.102-0.743-1.664-1.091l0.264-0.425c0.569,0.353,1.136,0.725,1.686,1.105L97.886-6.285z
			 M54.718-7.267l-0.266-0.424c0.567-0.355,1.148-0.7,1.729-1.025l0.244,0.437C55.852-7.958,55.277-7.618,54.718-7.267z
			 M94.506-8.383c-0.582-0.321-1.177-0.63-1.767-0.917l0.219-0.449c0.598,0.291,1.2,0.604,1.79,0.929L94.506-8.383z M58.181-9.204
			l-0.222-0.448c0.598-0.296,1.211-0.58,1.823-0.844l0.198,0.459C59.377-9.776,58.771-9.496,58.181-9.204z M90.93-10.127
			c-0.612-0.26-1.235-0.507-1.853-0.733l0.172-0.47c0.625,0.229,1.256,0.479,1.876,0.743L90.93-10.127z M61.82-10.779l-0.175-0.469
			c0.624-0.233,1.264-0.454,1.903-0.656l0.15,0.477C63.069-11.227,62.437-11.009,61.82-10.779z M87.188-11.498
			c-0.631-0.195-1.273-0.377-1.912-0.54l0.123-0.484c0.646,0.165,1.299,0.348,1.938,0.546L87.188-11.498z M65.608-11.979
			l-0.126-0.483c0.649-0.17,1.308-0.324,1.959-0.459l0.102,0.489C66.9-12.298,66.25-12.146,65.608-11.979z M83.339-12.479
			c-0.644-0.129-1.303-0.244-1.959-0.342l0.074-0.494c0.664,0.099,1.331,0.215,1.982,0.346L83.339-12.479z M69.499-12.785
			l-0.076-0.494c0.66-0.102,1.332-0.189,1.996-0.257l0.052,0.497C70.814-12.972,70.151-12.886,69.499-12.785z M79.408-13.063
			c-0.653-0.064-1.32-0.112-1.982-0.143l0.023-0.499c0.67,0.031,1.346,0.08,2.008,0.144L79.408-13.063z M73.452-13.194l-0.026-0.499
			c0.664-0.035,1.341-0.054,2.013-0.056l0.001,0.5C74.776-13.248,74.107-13.229,73.452-13.194z"/>
	</g>
	<g>
		<polygon points="66.936,15.58 45.983,-10.322 46.572,-10.787 67.57,15.794 		"/>
	</g>
	<g>
		<rect x="29.42" y="18.979" transform="matrix(-0.9543 -0.299 0.299 -0.9543 95.1611 53.2668)" width="44.47" height="0.75"/>
	</g>
</g>
</svg>
