<?xml version="1.0" encoding="utf-8"?>
<!-- Generator: Adobe Illustrator 19.1.0, SVG Export Plug-In . SVG Version: 6.00 Build 0)  -->
<svg version="1.1" id="Ebene_1" xmlns="http://www.w3.org/2000/svg" xmlns:xlink="http://www.w3.org/1999/xlink" x="0px" y="0px"
	 viewBox="-289 278 100 125" enable-background="new -289 278 100 125" xml:space="preserve">
<g>
	<g>
		<path d="M-239.229,351.738c4.418,0,8.421,1.798,11.323,4.699l4.691-4.691c-3.373-3.372-7.801-5.686-12.737-6.404l-6.799,6.8
			C-241.616,351.886-240.44,351.738-239.229,351.738z"/>
		<path d="M-245.8,361.188l6.571,6.572l6.571-6.572c-1.681-1.683-4.006-2.723-6.571-2.722
			C-241.795,358.467-244.119,359.506-245.8,361.188z"/>
		<path d="M-239.229,331.914c-9.882-0.001-18.845,4.02-25.336,10.51l4.693,4.691c3.758-3.757,8.535-6.491,13.872-7.764l7.421-7.422
			C-238.796,331.927-239.011,331.914-239.229,331.914z"/>
		<path d="M-218.585,347.116l4.69-4.691c-3.255-3.255-7.133-5.888-11.435-7.705l-5.167,5.166
			C-225.948,341.314-221.876,343.824-218.585,347.116z"/>
		<path d="M-239.229,318.689c-13.528,0-25.797,5.503-34.682,14.39l4.692,4.692c7.684-7.684,18.292-12.442,29.991-12.443
			c2.286,0,4.527,0.187,6.717,0.537l5.605-5.606C-230.845,319.235-234.974,318.689-239.229,318.689z"/>
		<path d="M-220.372,329.762c4.137,2.062,7.897,4.771,11.134,8.006l4.69-4.691c-3.223-3.224-6.897-5.995-10.911-8.228
			L-220.372,329.762z"/>
	</g>
	<path d="M-239,294.72c-25.171,0-45.65,20.479-45.65,45.65c0,25.172,20.479,45.65,45.65,45.65c25.172,0,45.65-20.479,45.65-45.65
		C-193.349,315.199-213.828,294.72-239,294.72z M-239,301.306c9.419,0,18.069,3.351,24.823,8.923l-54.964,54.964
		c-5.572-6.754-8.923-15.404-8.923-24.823C-278.064,318.83-260.539,301.306-239,301.306z M-239,379.433
		c-9.418,0-18.068-3.35-24.821-8.921l54.964-54.963c5.571,6.753,8.921,15.403,8.921,24.821
		C-199.936,361.91-217.46,379.433-239,379.433z"/>
</g>
</svg>
