<?xml version="1.0" encoding="utf-8"?>
<!-- Generator: Adobe Illustrator 19.1.0, SVG Export Plug-In . SVG Version: 6.00 Build 0)  -->
<svg version="1.1" id="Ebene_1" xmlns="http://www.w3.org/2000/svg" xmlns:xlink="http://www.w3.org/1999/xlink" x="0px" y="0px"
	 viewBox="-289 278 100 125" enable-background="new -289 278 100 125" xml:space="preserve">
<path d="M-222.254,290.002h-33.869c-3.777,0-6.925,3.148-6.925,6.925v86.246c0,3.777,3.148,6.925,6.925,6.925h33.869
	c3.777,0,6.925-3.148,6.925-6.925v-86.246C-215.33,293.024-218.477,290.002-222.254,290.002z M-242.903,296.549h7.428
	c0.378,0,0.63,0.252,0.63,0.63s-0.252,0.63-0.63,0.63h-7.428c-0.378,0-0.63-0.252-0.63-0.63S-243.281,296.549-242.903,296.549z
	 M-239.126,386.447c-2.266,0-4.155-1.889-4.155-4.155c0-2.266,1.889-4.155,4.155-4.155c2.266,0,4.155,1.889,4.155,4.155
	C-234.971,384.558-236.86,386.447-239.126,386.447z M-218.1,373.604c0,0.755-0.63,1.385-1.385,1.385h-39.409
	c-0.755,0-1.385-0.63-1.385-1.385v-68.745c0-0.755,0.63-1.385,1.385-1.385h39.535c0.755,0,1.385,0.63,1.385,1.385L-218.1,373.604z"
	/>
<path d="M-239.126,353.837c-2.266,0-4.155-1.637-4.533-3.777h-9.317c-0.252,0-0.63-0.126-0.755-0.504
	c-0.126-0.252-0.126-0.63,0.126-0.881c2.644-3.148,4.155-7.177,4.155-11.332v-1.133c0-6.421,4.155-9.443,7.932-10.324v-1.637
	c0-0.378,0.378-0.755,0.755-0.755h3.274c0.378,0,0.755,0.378,0.755,0.755v1.637c3.777,0.881,7.932,4.029,7.932,10.324v1.259
	c0,4.155,1.511,8.184,4.155,11.332c0.252,0.252,0.252,0.504,0.126,0.881c-0.126,0.252-0.378,0.504-0.755,0.504h-9.317
	C-234.971,352.2-236.86,353.837-239.126,353.837z M-251.465,348.549h8.562c0.378,0,0.755,0.378,0.755,0.755
	c0,1.637,1.385,3.022,3.022,3.022c1.637,0,3.022-1.385,3.022-3.022c0-0.378,0.378-0.755,0.755-0.755h8.562
	c-2.266-3.274-3.525-7.177-3.525-11.08v-1.133c0-5.792-3.777-8.436-7.303-8.939c-0.378,0-0.63-0.378-0.63-0.755v-1.511h-1.763v1.511
	c0,0.378-0.252,0.755-0.63,0.755c-3.525,0.504-7.303,3.148-7.303,8.939v1.133C-247.939,341.372-249.198,345.275-251.465,348.549z"/>
<path d="M-196.821,335.832h-9.065c-0.63,0-1.007-0.504-1.007-1.007c0-0.63,0.504-1.007,1.007-1.007h9.065
	c0.63,0,1.007,0.504,1.007,1.007C-195.814,335.454-196.318,335.832-196.821,335.832z"/>
<path d="M-208.153,328.53c-0.378,0-0.63-0.126-0.881-0.378c-0.378-0.504-0.252-1.133,0.252-1.385l8.436-6.044
	c0.504-0.378,1.133-0.252,1.385,0.252c0.378,0.504,0.252,1.133-0.252,1.385l-8.436,6.044
	C-207.775,328.53-208.027,328.53-208.153,328.53z"/>
<path d="M-199.717,349.178c-0.252,0-0.378,0-0.63-0.252l-8.436-5.918c-0.504-0.378-0.63-1.007-0.252-1.385
	c0.378-0.504,1.007-0.63,1.385-0.252l8.436,6.044c0.504,0.378,0.63,1.007,0.252,1.385
	C-199.088,349.052-199.465,349.178-199.717,349.178z"/>
<path d="M-272.113,335.832h-9.065c-0.63,0-1.007-0.504-1.007-1.007c0-0.63,0.504-1.007,1.007-1.007h9.065
	c0.63,0,1.007,0.504,1.007,1.007C-270.98,335.454-271.484,335.832-272.113,335.832z"/>
<path d="M-278.283,349.178c-0.378,0-0.63-0.126-0.881-0.378c-0.378-0.504-0.252-1.133,0.252-1.385l8.436-6.044
	c0.504-0.378,1.133-0.252,1.385,0.252c0.378,0.504,0.252,1.133-0.252,1.385l-8.436,6.044
	C-277.779,349.178-278.031,349.178-278.283,349.178z"/>
<path d="M-269.847,328.53c-0.252,0-0.378,0-0.63-0.252l-8.31-5.918c-0.504-0.378-0.63-1.007-0.252-1.385
	c0.378-0.504,1.007-0.63,1.385-0.252l8.436,6.044c0.504,0.378,0.63,1.007,0.252,1.385
	C-269.092,328.404-269.469,328.53-269.847,328.53z"/>
</svg>
