<?xml version="1.0" encoding="utf-8"?>
<!-- Generator: Adobe Illustrator 19.1.0, SVG Export Plug-In . SVG Version: 6.00 Build 0)  -->
<svg version="1.1" id="Ebene_1" xmlns="http://www.w3.org/2000/svg" xmlns:xlink="http://www.w3.org/1999/xlink" x="0px" y="0px"
	 viewBox="-289 291 100 100" enable-background="new -289 291 100 100" xml:space="preserve">
<g>
	<g>
		<g>
			<path fill="#FFFFFF" d="M-286.173,339.546c0.109-1.381,0.216-2.763,0.321-4.146c0.085-1.122,0.166-2.246,0.252-3.367
				c0.103-1.342,0.21-2.685,0.314-4.027c0.085-1.107,0.166-2.215,0.251-3.32c0.104-1.352,0.211-2.701,0.315-4.052
				c0.085-1.106,0.167-2.215,0.252-3.321c0.104-1.351,0.21-2.699,0.314-4.051c0.085-1.1,0.167-2.197,0.252-3.298
				c0.105-1.367,0.21-2.733,0.317-4.099c0.049-0.619,0.068-1.244,0.16-1.857c0.2-1.338,1.432-2.586,2.699-2.779
				c0.124-0.018,0.251-0.022,0.377-0.022c8.771-0.002,17.542-0.002,26.313,0c1.327,0,2.599,1.021,2.798,2.271
				c0.066,0.418,0.061,0.848,0.069,1.272c0.01,0.565,0.002,1.132,0.002,1.737c0.178-0.059,0.23-0.15,0.297-0.219
				c1.041-1.055,2.235-1.865,3.665-2.298c0.394-0.118,0.799-0.171,1.212-0.171c11.883,0.002,23.768,0.001,35.65,0.003
				c1.89,0,3.586,0.64,5.152,1.644c1.885,1.209,3.287,2.834,4.079,4.945c0.747,1.992,0.754,4.022,0.242,6.066
				c-0.052,0.207-0.013,0.328,0.144,0.468c1.539,1.356,2.506,3.037,2.832,5.073c0.235,1.468,0.07,2.906-0.356,4.318
				c-0.091,0.299-0.038,0.474,0.192,0.688c1.541,1.426,2.596,3.139,2.945,5.234c0.249,1.502,0.014,2.936-0.708,4.281
				c-0.103,0.188-0.083,0.291,0.076,0.436c1.294,1.167,2.33,2.515,2.933,4.173c1.274,3.52-0.148,7.563-3.332,9.418
				c-0.98,0.57-2.035,0.854-3.178,0.852c-7.771-0.008-15.54-0.004-23.311-0.004c-0.461,0-0.463,0-0.354,0.449
				c0.488,2.021,1.054,4.023,1.45,6.066c0.307,1.58,0.486,3.173,0.602,4.779c0.199,2.801-0.386,5.469-1.281,8.088
				c-1,2.918-2.299,5.696-3.854,8.358c-0.256,0.437-0.595,0.769-1.027,1.017c-1.26,0.721-2.627,1.092-4.058,1.262
				c-0.319,0.037-0.642,0.058-0.963,0.086c-0.235,0-0.474,0-0.709,0c-0.586-0.063-1.177-0.098-1.754-0.227
				c-2.103-0.47-3.777-1.568-4.994-3.354c-0.112-0.163-0.163-0.33-0.161-0.527c0.038-2.734,0.057-5.468,0.11-8.201
				c0.022-1.189-0.007-2.379,0.049-3.567c0.024-0.492-0.079-0.917-0.293-1.353c-2.713-5.531-5.794-10.836-9.537-15.74
				c-0.942-1.235-1.95-2.416-3.096-3.471c-0.233-0.215-0.265-0.236-0.421,0.028c-0.217,0.369-0.546,0.374-0.897,0.374
				c-2.671,0.004-5.342,0.009-8.012,0.011c-5.153,0.005-10.306-0.005-15.458,0.019c-1.867,0.009-3.734,0.008-5.601,0.025
				c-1.571,0.014-2.587-0.824-3.299-2.134c-0.041-0.075-0.077-0.153-0.116-0.231c0-0.726,0-1.451,0-2.176
				C-286.262,340.5-286.215,340.022-286.173,339.546z M-238.371,307.569c-1.93,0.012-3.861,0.016-5.791,0.039
				c-0.488,0.006-0.976,0.031-1.464,0.045c-0.302,0.008-0.567,0.125-0.826,0.262c-1.192,0.627-2.365,1.295-3.498,2.021
				c-0.548,0.352-1.091,0.477-1.735,0.432c-0.736-0.049-1.48,0.007-2.22,0.015c-0.154,0.001-0.236,0.067-0.23,0.228
				c0.003,0.078,0,0.157,0,0.236c-0.001,9.377,0.001,18.756-0.008,28.132c-0.001,0.331,0.101,0.525,0.376,0.711
				c1.446,0.971,2.875,1.965,4.312,2.948c0.196,0.136,0.371,0.287,0.521,0.476c3.448,4.33,6.494,8.932,9.263,13.721
				c1.342,2.32,2.611,4.68,3.841,7.061c0.099,0.19,0.123,0.383,0.123,0.592c-0.002,3.924,0.003,7.849-0.009,11.772
				c0,0.315,0.103,0.504,0.361,0.674c0.864,0.57,1.807,0.87,2.84,0.931c1.237,0.071,2.371-0.224,3.41-0.897
				c0.122-0.08,0.217-0.175,0.279-0.31c1.419-3.029,2.68-6.119,3.521-9.367c0.297-1.145,0.541-2.303,0.492-3.496
				c-0.055-1.369-0.164-2.735-0.345-4.096c-0.513-3.893-1.328-7.729-2.188-11.558c-0.008-0.03-0.014-0.062-0.021-0.092
				c-0.063-0.294-0.052-0.313,0.249-0.313c5.484-0.002,10.969-0.004,16.454-0.004c3.647-0.002,7.297,0.033,10.944-0.018
				c1.658-0.023,3.256-1.169,3.609-3.223c0.348-2.026-0.629-4.094-2.443-5.232c-0.447-0.281-0.912-0.523-1.426-0.673
				c-0.619-0.18-0.791-1.068-0.304-1.534c0.793-0.758,1.244-1.702,1.429-2.763c0.262-1.491-0.166-2.809-1.147-3.945
				c-0.697-0.807-1.556-1.398-2.524-1.834c-0.775-0.348-0.957-1.316-0.347-1.865c1.387-1.244,1.789-2.717,1.142-4.462
				c-0.566-1.524-1.535-2.739-2.986-3.53c-0.223-0.123-0.457-0.217-0.705-0.271c-0.229-0.05-0.369-0.19-0.471-0.392
				c-0.281-0.561-0.164-1.104,0.307-1.53c0.904-0.815,1.455-1.8,1.392-3.052c-0.049-0.951-0.437-1.787-0.983-2.547
				c-0.928-1.291-2.109-2.287-3.531-3c-0.43-0.215-0.877-0.316-1.364-0.316c-5.862,0.009-11.726,0.006-17.589,0.006
				c0,0.005,0,0.01,0,0.016C-231.229,307.565-234.801,307.547-238.371,307.569z M-266.863,310.654
				c0.003,1.435,1.177,2.602,2.612,2.598c1.42-0.004,2.579-1.178,2.573-2.607c-0.007-1.432-1.161-2.578-2.597-2.574
				C-265.705,308.072-266.865,309.233-266.863,310.654z"/>
			<path fill="#FFFFFF" d="M-264.493,310.044c-0.001,0.188-0.156,0.347-0.342,0.351c-0.196,0.002-0.355-0.164-0.349-0.365
				c0.006-0.197,0.151-0.334,0.351-0.33C-264.637,309.703-264.493,309.85-264.493,310.044z"/>
			<path fill="#FFFFFF" d="M-263.36,311.18c0.006,0.196-0.157,0.357-0.356,0.355c-0.195-0.004-0.336-0.15-0.335-0.348
				c0-0.195,0.145-0.343,0.338-0.345C-263.525,310.841-263.365,310.992-263.36,311.18z"/>
			<path fill="#FFFFFF" d="M-263.36,310.035c0.004,0.193-0.168,0.365-0.359,0.359c-0.186-0.006-0.333-0.166-0.332-0.357
				c0.002-0.199,0.141-0.338,0.342-0.338C-263.515,309.699-263.364,309.845-263.36,310.035z"/>
			<path fill="#FFFFFF" d="M-264.834,311.533c-0.192,0.002-0.344-0.143-0.35-0.334c-0.006-0.2,0.151-0.359,0.35-0.356
				c0.188,0.004,0.34,0.159,0.34,0.347C-264.494,311.378-264.644,311.529-264.834,311.533z"/>
		</g>
	</g>
</g>
</svg>
