<?xml version="1.0" encoding="utf-8"?>
<!-- Generator: Adobe Illustrator 19.1.0, SVG Export Plug-In . SVG Version: 6.00 Build 0)  -->
<svg version="1.1" id="Ebene_1" xmlns="http://www.w3.org/2000/svg" xmlns:xlink="http://www.w3.org/1999/xlink" x="0px" y="0px"
	 viewBox="0 0 60 60" enable-background="new 0 0 60 60" xml:space="preserve">
<circle opacity="0.5" fill="#2A4B9B" cx="30" cy="30" r="30"/>
<circle fill="#FFFFFF" cx="30" cy="30" r="17.213"/>
<circle fill="#2A4B9B" cx="30" cy="30" r="15.98"/>
<path fill="#FFFFFF" d="M35.856,21.964L30,21.419l-5.856,0.545c-0.874,0-1.589,0.715-1.589,1.589v11.302
	c0,0.874,0.715,1.589,1.589,1.589h0.862l-1.362,1.589h12.71l-1.362-1.589h0.863c0.874,0,1.589-0.715,1.589-1.589V23.553
	C37.444,22.679,36.729,21.964,35.856,21.964z M24.216,34.719c-0.437,0-0.791-0.354-0.791-0.791c0-0.437,0.354-0.791,0.791-0.791
	c0.437,0,0.791,0.354,0.791,0.791C25.007,34.365,24.653,34.719,24.216,34.719z M29.574,29.499h-6.149v-5.175h6.149V29.499z
	 M35.784,34.719c-0.437,0-0.791-0.354-0.791-0.791c0-0.437,0.354-0.791,0.791-0.791c0.437,0,0.791,0.354,0.791,0.791
	C36.575,34.365,36.221,34.719,35.784,34.719z M36.575,29.499h-6.149v-5.175h6.149V29.499z"/>
</svg>
