<?xml version="1.0" encoding="utf-8"?>
<!-- Generator: Adobe Illustrator 19.1.0, SVG Export Plug-In . SVG Version: 6.00 Build 0)  -->
<svg version="1.1" id="Ebene_1" xmlns="http://www.w3.org/2000/svg" xmlns:xlink="http://www.w3.org/1999/xlink" x="0px" y="0px"
	 viewBox="0 0 25 25" enable-background="new 0 0 25 25" xml:space="preserve">
<circle fill="#2A4B9B" cx="12.5" cy="12.5" r="10.771"/>
<circle fill="#2A4B9B" cx="12.5" cy="12.5" r="10"/>
<path fill="#FFFFFF" d="M16.927,6.46L12.5,6.048L8.073,6.46C7.412,6.46,6.871,7,6.871,7.661v8.546c0,0.661,0.541,1.201,1.201,1.201
	h0.652l-1.03,1.201h9.61l-1.03-1.201h0.652c0.661,0,1.201-0.541,1.201-1.201V7.661C18.129,7,17.588,6.46,16.927,6.46z M8.127,16.104
	c-0.33,0-0.598-0.268-0.598-0.598c0-0.33,0.268-0.598,0.598-0.598c0.33,0,0.598,0.268,0.598,0.598
	C8.725,15.836,8.457,16.104,8.127,16.104z M12.178,12.157H7.529V8.244h4.649V12.157z M16.873,16.104
	c-0.33,0-0.598-0.268-0.598-0.598c0-0.33,0.268-0.598,0.598-0.598c0.33,0,0.598,0.268,0.598,0.598
	C17.471,15.836,17.203,16.104,16.873,16.104z M17.471,12.157h-4.649V8.244h4.649V12.157z"/>
</svg>
