<?xml version="1.0" encoding="utf-8"?>
<!-- Generator: Adobe Illustrator 19.1.0, SVG Export Plug-In . SVG Version: 6.00 Build 0)  -->
<svg version="1.1" id="Ebene_1" xmlns="http://www.w3.org/2000/svg" xmlns:xlink="http://www.w3.org/1999/xlink" x="0px" y="0px"
	 viewBox="0 0 50 50" enable-background="new 0 0 50 50" xml:space="preserve">
<path d="M40.263,4.497l-15.262-1.42L9.739,4.497c-2.278,0-4.141,1.863-4.141,4.141v29.455c0,2.278,1.863,4.141,4.141,4.141h2.247
	l-3.55,4.141H41.56l-3.55-4.141h2.249c2.278,0,4.141-1.863,4.141-4.141V8.638C44.401,6.36,42.538,4.497,40.263,4.497z M9.927,37.739
	c-1.139,0-2.061-0.923-2.061-2.061c0-1.139,0.923-2.061,2.061-2.061s2.061,0.923,2.061,2.061
	C11.988,36.816,11.066,37.739,9.927,37.739z M23.891,24.134H7.865V10.647h16.025V24.134z M40.075,37.739
	c-1.139,0-2.061-0.923-2.061-2.061c0-1.139,0.923-2.061,2.061-2.061s2.061,0.923,2.061,2.061
	C42.136,36.816,41.214,37.739,40.075,37.739z M42.136,24.134H26.111V10.647h16.025V24.134z"/>
</svg>
